<svg xmlns="http://www.w3.org/2000/svg" viewBox="0 0 100 120" fill="none">
  <defs>
    <clipPath id="shield-andrew">
      <path d="M50 4C66 8 78 14 83 24V56C83 78 71 96 50 114C29 96 17 78 17 56V24C22 14 34 8 50 4Z" />
    </clipPath>
  </defs>
  <g clip-path="url(#shield-andrew)">
    <rect width="100" height="120" fill="#0F56D9" />
    <path d="M8 14L22 4L92 102L78 112L8 14Z" fill="#fff" />
    <path d="M92 14L78 4L8 102L22 112L92 14Z" fill="#fff" />
  </g>
  <path d="M50 4C66 8 78 14 83 24V56C83 78 71 96 50 114C29 96 17 78 17 56V24C22 14 34 8 50 4Z" stroke="#B29741" stroke-width="4" stroke-linejoin="round" />
</svg>
